{"title":"WWF Wrestlemania 17 -={SPARROW}=-","uid":9997332,"size":4917658722,"categoryP":"video","categoryS":"tv_shows","magnet":"?xt=urn:btih:a50cb3ae6ecd87be3546fba177c26fe7e59c029a&amp;dn=WWF+Wrestlemania+17+-%3D%7BSPARROW%7D%3D-&amp;tr=udp%3A%2F%2Ftracker.openbittorrent.com%3A80&amp;tr=udp%3A%2F%2Fopen.demonii.com%3A1337&amp;tr=udp%3A%2F%2Ftracker.coppersurfer.tk%3A6969&amp;tr=udp%3A%2F%2Fexodus.desync.com%3A6969","seeders":17,"leechers":2,"uploader":"CenaCme","files":-1,"time":1397936127,"description":"Format                                  : MPEG-4\nFormat profile                          : Base Media\nCodec ID                                : isom\nFile size                                : 4.58 GiB\nDuration                                : 3h 45mn\nOverall bit rate mode                    : Variable\nOverall bit rate                        : 2 909 Kbps\nEncoded date                            : UTC 2014-03-22 04:00:12\nTagged date                              : UTC 2014-03-22 04:00:12\nWriting application                      : Yamb 2.1.0.0 [http://yamb.unite-video.com]\n\nVideo\nID                                      : 1\nFormat                                  : AVC\nFormat/Info                              : Advanced Video Codec\nFormat profile                          : &lt;a class=&quot;__cf_email__&quot; href=&quot;/cdn-cgi/l/email-protection&quot; data-cfemail=&quot;783519111638344b5649&quot;&gt;[email&amp;#160;protected]&lt;/a&gt;&lt;script cf-hash='f9e31' type=&quot;text/javascript&quot;&gt;\n/* &lt;![CDATA[ */!function(){try{var t=&quot;currentScript&quot;in document?document.currentScript:function(){for(var t=document.getElementsByTagName(&quot;script&quot;),e=t.length;e--;)if(t[e].getAttribute(&quot;cf-hash&quot;))return t[e]}();if(t&amp;&amp;t.previousSibling){var e,r,n,i,c=t.previousSibling,a=c.getAttribute(&quot;data-cfemail&quot;);if(a){for(e=&quot;&quot;,r=parseInt(a.substr(0,2),16),n=2;a.length-n;n+=2)i=parseInt(a.substr(n,2),16)^r,e+=String.fromCharCode(i);e=document.createTextNode(e),c.parentNode.replaceChild(e,c)}}}catch(u){}}();/* ]]&gt; */&lt;/script&gt;\nFormat settings, CABAC                  : Yes\nFormat settings, ReFrames                : 3 frames\nCodec ID                                : avc1\nCodec ID/Info                            : Advanced Video Coding\nDuration                                : 3h 45mn\nBit rate mode                            : Variable\nBit rate                                : 2 811 Kbps\nMaximum bit rate                        : 3 656 Kbps\nWidth                                    : 960 pixels\nHeight                                  : 720 pixels\nDisplay aspect ratio                    : 4:3\nOriginal display aspect ratio            : 16:9\nFrame rate mode                          : Constant\nFrame rate                              : 29.970 fps\nColor space                              : YUV\nChroma subsampling                      : 4:2:0\nBit depth                                : 8 bits\nScan type                                : Progressive\nBits/(Pixel*Frame)                      : 0.136\nStream size                              : 4.43 GiB (97%)\nTitle                                    : 2001 04 01 - Wrestlemania 17.264:fps=29.970 - Imported with GPAC 0.5.0-rev4065\nEncoded date                            : UTC 2014-03-22 04:00:12\nTagged date                              : UTC 2014-03-22 04:03:12\n\nAudio\nID                                      : 2\nFormat                                  : AAC\nFormat/Info                              : Advanced Audio Codec\nFormat profile                          : LC\nCodec ID                                : 40\nDuration                                : 3h 45mn\nBit rate mode                            : Variable\nBit rate                                : 93.5 Kbps\nMaximum bit rate                        : 102 Kbps\nChannel(s)                              : 2 channels\nChannel positions                        : Front: L R\nSampling rate                            : 48.0 KHz\nCompression mode                        : Lossy\nStream size                              : 151 MiB (3%)\nTitle                                    : 2001 04 01 - Wrestlemania 17.aac - Imported with GPAC 0.5.0-rev4065\nEncoded date                            : UTC 2014-03-22 04:02:47\nTagged date                              : UTC 2014-03-22 04:03:12","torrent":{"xt":"urn:btih:a50cb3ae6ecd87be3546fba177c26fe7e59c029a","amp;dn":"WWF+Wrestlemania+17+-%3D%7BSPARROW%7D%3D-","amp;tr":["udp%3A%2F%2Ftracker.openbittorrent.com%3A80","udp%3A%2F%2Fopen.demonii.com%3A1337","udp%3A%2F%2Ftracker.coppersurfer.tk%3A6969","udp%3A%2F%2Fexodus.desync.com%3A6969"],"infoHash":"a50cb3ae6ecd87be3546fba177c26fe7e59c029a","infoHashBuffer":{"type":"Buffer","data":[165,12,179,174,110,205,135,190,53,70,251,161,119,194,111,231,229,156,2,154]},"announce":[],"urlList":[]}}